# xmcd
# 
# Track frame offsets:
#     150
#     29557
#     43025
#     82625
#     117882
#     148017
# 
# Disc length: 2236
# 
# Revision: 1
# Processed by: cddbd v1.5.2PL0 Copyright (c) Steve Scherf et al.
# Submitted via: BonkEnc v1.0.8
# 
DISCID=4608ba06
DTITLE=Urbie Green - Senor Blues
DYEAR=1977
DGENRE=Big Band
TTITLE0=Captain Marvel
TTITLE1=You Are So Beautiful
TTITLE2=Ysabel's Table Dance
TTITLE3=Senor Blues
TTITLE4=I'm In You
TTITLE5=I Wish
EXTD=YEAR: 1977
EXTT0=
EXTT1=
EXTT2=
EXTT3=
EXTT4=
EXTT5=
PLAYORDER=
